<?xml version="1.0" standalone="no"?>
<!DOCTYPE svg PUBLIC "-//W3C//DTD SVG 20010904//EN"
 "http://www.w3.org/TR/2001/REC-SVG-20010904/DTD/svg10.dtd">
<svg version="1.0" xmlns="http://www.w3.org/2000/svg"
 width="512.000000pt" height="512.000000pt" viewBox="0 0 512.000000 512.000000"
 preserveAspectRatio="xMidYMid meet">
<metadata>
Created by potrace 1.11, written by Peter Selinger 2001-2013
</metadata>
<g transform="translate(0.000000,512.000000) scale(0.100000,-0.100000)"
fill="#000000" stroke="none">
<path d="M0 2560 l0 -2560 1363 0 1363 0 0 988 -1 987 -305 2 c-168 1 -317 2
-332 2 l-28 1 0 403 0 402 333 0 332 0 1 360 c1 401 4 450 40 573 90 310 353
552 674 618 72 15 144 18 480 18 l395 1 1 -362 0 -363 -266 0 c-313 0 -345 -6
-420 -76 -27 -26 -58 -67 -71 -97 -22 -50 -23 -62 -24 -359 -1 -210 2 -308 9
-311 6 -2 179 -3 384 -2 l373 0 -6 -58 c-3 -33 -7 -69 -10 -81 -2 -11 -7 -41
-9 -66 -7 -62 -56 -440 -61 -466 -2 -12 -6 -47 -10 -78 -6 -42 -11 -56 -24
-57 -9 0 -158 -1 -331 -1 l-316 -1 1 -986 0 -986 793 -3 792 -2 0 2560 0 2560
-2560 0 -2560 0 0 -2560z"/>
</g>
</svg>
